<svg xmlns="http://www.w3.org/2000/svg" viewBox="0 0 16.05 12.94"><defs><style>.cls-1{fill:#fff;}</style></defs><title>Icono 19B</title><g id="Capa_2" data-name="Capa 2"><g id="Capa_1-2" data-name="Capa 1"><path class="cls-1" d="M14,1.5h-.74l0-.08A2,2,0,0,0,11.34,0H8A2,2,0,0,0,6,1.42L6,1.5H5l0-.15A.58.58,0,0,0,4.39.89H2.81a.58.58,0,0,0-.57.45l0,.15H2a2,2,0,0,0-2,2v7.42a2,2,0,0,0,2,2H14a2,2,0,0,0,2-2V3.51A2,2,0,0,0,14,1.5ZM2.76,5.19a.93.93,0,1,1,.93-.93A.93.93,0,0,1,2.76,5.19ZM9.65,10.7a3.48,3.48,0,1,1,3.48-3.48A3.48,3.48,0,0,1,9.65,10.7Z"/></g></g></svg>
