<?xml version="1.0"?>
<svg xmlns="http://www.w3.org/2000/svg" xmlns:xlink="http://www.w3.org/1999/xlink" version="1.1" id="Layer_1" x="0px" y="0px" viewBox="0 0 488 488" style="enable-background:new 0 0 488 488;" xml:space="preserve" width="512px" height="512px" class=""><g><g transform="translate(0 -540.36)">
	<g>
		<g>
			<path d="M448.9,650.483c0-0.1-0.1-0.3-0.1-0.4c0-0.2-0.1-0.3-0.1-0.5c0-0.1-0.1-0.3-0.1-0.4s-0.1-0.3-0.2-0.4     c-0.1-0.1-0.1-0.3-0.2-0.4c-0.1-0.1-0.1-0.3-0.2-0.4c-0.1-0.1-0.1-0.3-0.2-0.4c-0.1-0.2-0.2-0.4-0.4-0.6     c-0.1-0.1-0.1-0.2-0.2-0.3c-0.1-0.2-0.3-0.4-0.4-0.5l-82.3-102.121c-0.2-0.3-0.5-0.5-0.7-0.8c-0.1-0.1-0.1-0.1-0.2-0.1     c-0.2-0.2-0.4-0.4-0.6-0.6c-0.1-0.1-0.2-0.1-0.3-0.2c-0.2-0.1-0.4-0.3-0.6-0.4c-0.1-0.1-0.2-0.1-0.3-0.2     c-0.2-0.1-0.4-0.2-0.6-0.3c-0.1-0.1-0.2-0.1-0.3-0.2c-0.2-0.1-0.4-0.2-0.7-0.3c-0.1,0-0.2-0.1-0.3-0.1c-0.2-0.1-0.5-0.1-0.7-0.2     c-0.1,0-0.2-0.1-0.3-0.1c-0.3-0.1-0.5-0.1-0.8-0.1c-0.1,0-0.2,0-0.3,0c-0.4,0-0.7-0.1-1.1-0.1H90.5c-5.5,0-10,4.501-10,10.002     v41.108H49c-5.5,0-10,4.501-10,10.002v416.885c0,5.501,4.5,10.002,10,10.002h349.2c5.5,0,10-4.501,10-10.002V977.25H439     c5.5,0,10-4.501,10-10.002V652.383c0-0.3,0-0.6,0-0.9c0-0.1,0-0.2,0-0.4C449,650.883,449,650.683,448.9,650.483z M366.7,578.568     l51.4,63.813h-51.4V578.568z M349.6,658.784l27.6,34.007h-51.3v-63.213l22.4,27.606C348.7,657.784,349.1,658.284,349.6,658.784z      M100.5,560.264h246.2v63.113l-23-28.306c-0.2-0.3-0.5-0.5-0.7-0.8c-0.1-0.1-0.1-0.1-0.2-0.2c-0.2-0.2-0.4-0.3-0.6-0.5     c-0.1-0.1-0.2-0.1-0.3-0.2c-0.2-0.1-0.4-0.3-0.6-0.4c-0.1-0.1-0.2-0.1-0.3-0.2c-0.2-0.1-0.4-0.2-0.6-0.3     c-0.1-0.1-0.2-0.1-0.3-0.1c-0.2-0.1-0.5-0.2-0.7-0.3c-0.1,0-0.2-0.1-0.3-0.1c-0.2-0.1-0.5-0.1-0.7-0.2c-0.1,0-0.2-0.1-0.3-0.1     c-0.3-0.1-0.5-0.1-0.8-0.1c-0.1,0-0.2,0-0.3,0c-0.4,0-0.7-0.1-1.1-0.1H100.5V560.264z M59,1008.356V611.375h246.9v91.419     c0,5.501,4.5,10.002,10,10.002h72.3v295.561l0,0H59z M429,957.345h-20.8l0-0.1V702.693c0-0.3,0-0.6,0-0.9c0-0.1,0-0.2,0-0.4     s0-0.4-0.1-0.6c0-0.1-0.1-0.3-0.1-0.4c0-0.2-0.1-0.3-0.1-0.5c0-0.2-0.1-0.3-0.1-0.4s-0.1-0.3-0.2-0.4c-0.1-0.1-0.1-0.3-0.2-0.4     c-0.1-0.1-0.1-0.3-0.2-0.4c-0.1-0.1-0.1-0.3-0.2-0.4c-0.1-0.2-0.2-0.4-0.3-0.5c-0.1-0.1-0.1-0.2-0.2-0.2     c-0.2-0.2-0.3-0.5-0.5-0.7l-27.6-34.007H429V957.345z" data-original="#000000" class="active-path" data-old_color="#000000" fill="#FFBB04"/>
			<path d="M325.9,753.704H121.3c-5.5,0-10,4.501-10,10.002s4.5,10.002,10,10.002h204.6c5.5,0,10-4.501,10-10.002     C335.9,758.205,331.4,753.704,325.9,753.704z" data-original="#000000" class="active-path" data-old_color="#000000" fill="#FFBB04"/>
			<path d="M325.9,814.716H121.3c-5.5,0-10,4.501-10,10.002s4.5,10.002,10,10.002h204.6c5.5,0,10-4.501,10-10.002     S331.4,814.716,325.9,814.716z" data-original="#000000" class="active-path" data-old_color="#000000" fill="#FFBB04"/>
			<path d="M325.9,875.729H121.3c-5.5,0-10,4.501-10,10.002s4.5,10.002,10,10.002h204.6c5.5,0,10-4.501,10-10.002     C335.9,880.23,331.4,875.729,325.9,875.729z" data-original="#000000" class="active-path" data-old_color="#000000" fill="#FFBB04"/>
			<path d="M325.9,936.741H121.3c-5.5,0-10,4.501-10,10.002s4.5,10.002,10,10.002h204.6c5.5,0,10-4.501,10-10.002     S331.4,936.741,325.9,936.741z" data-original="#000000" class="active-path" data-old_color="#000000" fill="#FFBB04"/>
		</g>
	</g>
</g></g> </svg>
