<?xml version="1.0"?>
<svg xmlns="http://www.w3.org/2000/svg" id="Solid" height="512px" viewBox="0 0 512 512" width="512px"><g><path d="m256 488a23.928 23.928 0 0 1 -16.971-7.029l-208-208a24 24 0 0 1 0-33.942l208-208a24 24 0 0 1 33.942 33.942l-191.03 191.029 191.03 191.029a24 24 0 0 1 -16.971 40.971zm224.971-7.029a24 24 0 0 0 0-33.942l-191.03-191.029 191.03-191.029a24 24 0 0 0 -33.942-33.942l-208 208a24 24 0 0 0 0 33.942l208 208a24 24 0 0 0 33.942 0z" data-original="#000000" class="active-path" data-old_color="#000000" fill="#206AA0"/></g> </svg>
