<?xml version="1.0"?>
<svg xmlns="http://www.w3.org/2000/svg" xmlns:xlink="http://www.w3.org/1999/xlink" version="1.1" id="Capa_1" x="0px" y="0px" viewBox="0 0 512 512" style="enable-background:new 0 0 512 512;" xml:space="preserve" width="512px" height="512px" class=""><g><g>
	<g>
		<path d="M458.667,53.333H96c-29.419,0-53.333,23.915-53.333,53.333v298.667c0,5.888,4.779,10.667,10.667,10.667    S64,411.221,64,405.333V106.667c0-17.643,14.357-32,32-32h362.667c17.643,0,32,14.357,32,32v298.667c0,17.643-14.357,32-32,32    H53.333c-5.888,0-10.667,4.779-10.667,10.667s4.779,10.667,10.667,10.667h405.333c29.419,0,53.333-23.915,53.333-53.333V106.667    C512,77.248,488.085,53.333,458.667,53.333z" data-original="#000000" class="active-path" data-old_color="#000000" fill="#D8EA08"/>
	</g>
</g><g>
	<g>
		<path d="M96,437.333H53.333c-17.643,0-32-14.357-32-32V170.667c0-17.643,14.357-32,32-32C59.221,138.667,64,133.888,64,128    s-4.779-10.667-10.667-10.667C23.915,117.333,0,141.248,0,170.667v234.667c0,29.419,23.915,53.333,53.333,53.333H96    c5.888,0,10.667-4.779,10.667-10.667S101.888,437.333,96,437.333z" data-original="#000000" class="active-path" data-old_color="#000000" fill="#D8EA08"/>
	</g>
</g><g>
	<g>
		<path d="M266.667,245.333H96c-5.888,0-10.667,4.779-10.667,10.667v128c0,5.888,4.779,10.667,10.667,10.667h170.667    c5.888,0,10.667-4.779,10.667-10.667V256C277.333,250.112,272.555,245.333,266.667,245.333z M256,373.333H106.667V266.667H256    V373.333z" data-original="#000000" class="active-path" data-old_color="#000000" fill="#D8EA08"/>
	</g>
</g><g>
	<g>
		<path d="M458.667,245.333H309.333c-5.888,0-10.667,4.779-10.667,10.667s4.779,10.667,10.667,10.667h149.333    c5.888,0,10.667-4.779,10.667-10.667S464.555,245.333,458.667,245.333z" data-original="#000000" class="active-path" data-old_color="#000000" fill="#D8EA08"/>
	</g>
</g><g>
	<g>
		<path d="M458.667,309.333H309.333c-5.888,0-10.667,4.779-10.667,10.667s4.779,10.667,10.667,10.667h149.333    c5.888,0,10.667-4.779,10.667-10.667S464.555,309.333,458.667,309.333z" data-original="#000000" class="active-path" data-old_color="#000000" fill="#D8EA08"/>
	</g>
</g><g>
	<g>
		<path d="M458.667,373.333H309.333c-5.888,0-10.667,4.779-10.667,10.667s4.779,10.667,10.667,10.667h149.333    c5.888,0,10.667-4.779,10.667-10.667S464.555,373.333,458.667,373.333z" data-original="#000000" class="active-path" data-old_color="#000000" fill="#D8EA08"/>
	</g>
</g><g>
	<g>
		<path d="M458.667,181.333H96c-5.888,0-10.667,4.779-10.667,10.667S90.112,202.667,96,202.667h362.667    c5.888,0,10.667-4.779,10.667-10.667S464.555,181.333,458.667,181.333z" data-original="#000000" class="active-path" data-old_color="#000000" fill="#D8EA08"/>
	</g>
</g><g>
	<g>
		<path d="M458.667,117.333H96c-5.888,0-10.667,4.779-10.667,10.667S90.112,138.667,96,138.667h362.667    c5.888,0,10.667-4.779,10.667-10.667S464.555,117.333,458.667,117.333z" data-original="#000000" class="active-path" data-old_color="#000000" fill="#D8EA08"/>
	</g>
</g></g> </svg>
