<svg height="512pt" viewBox="0 -37 512 512" width="512pt" xmlns="http://www.w3.org/2000/svg"><path d="m50.34375 54.652344h30.003906v30h-30.003906zm0 0"/><path d="m100.347656 54.652344h30.003906v30h-30.003906zm0 0"/><path d="m150.351562 54.652344h30v30h-30zm0 0"/><path d="m0 0v437.820312h512v-437.820312zm482 30v80.007812h-452v-80.007812zm-452 377.820312v-267.8125h452v267.8125zm0 0"/><path d="m235.980469 54.652344h216.019531v30h-216.019531zm0 0"/><path d="m243.386719 171.320312h30v210.710938h-30zm0 0"/><path d="m300.660156 291.167969h152.339844v30h-152.339844zm0 0"/><path d="m300.660156 232.671875h152.339844v30h-152.339844zm0 0"/><path d="m300.660156 174.171875h152.339844v30h-152.339844zm0 0"/><path d="m300.660156 349.664062h152.339844v30h-152.339844zm0 0"/><path d="m61.121094 291.167969h155.21875v30h-155.21875zm0 0"/><path d="m61.121094 349.664062h155.21875v30h-155.21875zm0 0"/><path d="m215.660156 172.171875h-157.089844v88.945313h157.089844zm-30 58.945313h-97.089844v-28.945313h97.089844zm0 0"/></svg>