<?xml version="1.0"?>
<svg xmlns="http://www.w3.org/2000/svg" height="512px" viewBox="0 0 496 496" width="512px" class=""><g><path d="m376 168c0 4.417969-3.582031 8-8 8s-8-3.582031-8-8 3.582031-8 8-8 8 3.582031 8 8zm0 0" data-original="#000000" class="active-path" data-old_color="#000000" fill="#FFBB04"/><path d="m296 168c0 4.417969-3.582031 8-8 8s-8-3.582031-8-8 3.582031-8 8-8 8 3.582031 8 8zm0 0" data-original="#000000" class="active-path" data-old_color="#000000" fill="#FFBB04"/><path d="m360 216h-16c0 8.824219-7.175781 16-16 16s-16-7.175781-16-16h-16c0 17.648438 14.351562 32 32 32s32-14.351562 32-32zm0 0" data-original="#000000" class="active-path" data-old_color="#000000" fill="#FFBB04"/><path d="m496 370.59375c0-24.144531-15.390625-45.496094-38.289062-53.121094l-81.710938-27.242187v-16.574219c17.679688-11.558594 30.910156-29.304688 36.710938-50.136719 19.816406-2.359375 35.289062-19.078125 35.289062-39.519531v-87.207031c0-26.601563-18.351562-49.800781-43.984375-56.089844l-8.535156-8.535156c-20.746094-20.742188-48.320313-32.167969-77.65625-32.167969-60.558594 0-109.824219 49.265625-109.824219 109.824219v74.175781c0 20.441406 15.472656 37.160156 35.289062 39.519531 5.789063 20.839844 19.03125 38.578125 36.710938 50.136719v16.574219l-51.734375 17.25c-3.601563-2.160157-7.769531-3.480469-12.265625-3.480469h-8v-13.769531l-19.648438-6.542969 9.265626-18.519531-30.785157-30.785157-18.519531 9.265626-6.542969-19.648438h-43.53125l-6.542969 19.648438-18.519531-9.265626-30.785156 30.785157 9.265625 18.519531-19.65625 6.542969v13.769531h-8c-13.230469 0-24 10.769531-24 24v112c0 13.230469 10.769531 24 24 24h48v16h-16v16h128v-16h-16v-16h48c10.414062 0 19.214844-6.710938 22.527344-16h257.472656zm-98.792969-56.425781-30.664062 49.0625-27.230469-27.230469 30.847656-30.847656zm-157.207031 61.832031v-48c0-2.511719-.496094-4.886719-1.214844-7.167969l4.390625-1.464843 43.375 69.394531 13.960938-13.960938 3.304687 9.925781-6.761718 47.273438h-57.054688zm78.9375 16h18.117188l5.714843 40h-29.546875zm19.292969-16h-20.46875l-4.617188-13.839844 14.855469-14.847656 14.847656 14.847656zm77.433593-169.367188c.167969-2.199218.335938-4.394531.335938-6.632812v-38.527344c9.289062 3.3125 16 12.113282 16 22.527344 0 10.535156-6.871094 19.414062-16.335938 22.632812zm-191.664062-22.632812c0-10.414062 6.710938-19.214844 16-22.527344v38.527344c0 2.238281.167969 4.433594.335938 6.632812-9.464844-3.21875-16.335938-12.097656-16.335938-22.632812zm16-56v16.808594c-5.945312 1.214844-11.328125 3.855468-16 7.390625v-42.382813c0-51.726562 42.089844-93.816406 93.824219-93.816406 25.0625 0 48.625 9.761719 66.34375 27.480469l11.886719 11.886719 2.378906.480468c19.445312 3.886719 33.566406 21.105469 33.566406 40.945313v55.414062c-4.671875-3.535156-10.054688-6.183593-16-7.390625v-16.816406h-10.742188c-27.050781 0-52.480468-10.527344-71.601562-29.65625l-5.65625-5.65625-5.65625 5.65625c-19.128906 19.128906-44.550781 29.65625-71.601562 29.65625zm16 72v-56.121094c26.769531-1.167968 51.921875-11.285156 72-28.917968 20.078125 17.632812 45.230469 27.75 72 28.917968v56.121094c0 39.703125-32.296875 72-72 72s-72-32.296875-72-72zm72 88c11.296875 0 22.0625-2.214844 32-6.113281v10.800781l-32 32-32-32v-10.800781c9.9375 3.898437 20.703125 6.113281 32 6.113281zm-42.160156 17.152344 30.847656 30.847656-27.230469 27.230469-30.664062-49.0625zm-237.839844-3.382813 18.367188-6.121093 1.34375-3.542969c.394531-1.035157.800781-2.035157 1.234374-3.027344l1.550782-3.460937-8.648438-17.296876 14.472656-14.472656 17.296876 8.648438 3.460937-1.550782c.992187-.441406 1.992187-.839843 3.027344-1.234374l3.542969-1.34375 6.121093-18.367188h20.46875l6.121094 18.367188 3.542969 1.34375c1.035156.394531 2.035156.800781 3.027344 1.234374l3.460937 1.550782 17.296875-8.648438 14.472656 14.472656-8.648437 17.296876 1.550781 3.460937c.441406.992187.839844 1.992187 1.234375 3.027344l1.34375 3.542969 18.359375 6.121093v20.46875l-18.367188 6.121094-1.34375 3.542969c-.394531 1.035156-.800781 2.035156-1.234374 3.027344l-1.550782 3.460937 8.648438 17.296875-14.472656 14.472656-17.296876-8.648437-3.460937 1.550781c-.992187.441406-1.992187.839844-3.027344 1.234375l-3.542969 1.34375-6.121093 18.359375h-20.46875l-6.121094-18.367188-3.542969-1.34375c-1.035156-.394531-2.035156-.800781-3.027344-1.234374l-3.460937-1.550782-17.296875 8.648438-14.464844-14.472656 8.648438-17.296876-1.550782-3.460937c-.441406-.992187-.839843-1.992187-1.234374-3.027344l-1.34375-3.542969-18.367188-6.121093zm-24 18.230469h8v13.769531l19.648438 6.542969-9.265626 18.519531 30.785157 30.785157 18.519531-9.265626 6.542969 19.648438h43.53125l6.542969-19.648438 18.519531 9.265626 30.785156-30.785157-9.265625-18.519531 19.65625-6.542969v-13.769531h8c4.414062 0 8 3.585938 8 8v88h-208v-88c0-4.414062 3.585938-8 8-8zm128 160h-64v-16h64zm64-32h-192c-4.414062 0-8-3.585938-8-8v-8h208v8c0 4.414062-3.585938 8-8 8zm264-16h-48v-56h-16v56h-57.054688l-6.753906-47.265625 3.304688-9.925781 13.960937 13.960937 43.367188-69.394531 39.824219 13.273438c16.359374 5.457031 27.351562 20.703124 27.351562 37.945312zm0 0" data-original="#000000" class="active-path" data-old_color="#000000" fill="#FFBB04"/><path d="m120 352c22.054688 0 40-17.945312 40-40s-17.945312-40-40-40-40 17.945312-40 40 17.945312 40 40 40zm0-64c13.230469 0 24 10.769531 24 24s-10.769531 24-24 24-24-10.769531-24-24 10.769531-24 24-24zm0 0" data-original="#000000" class="active-path" data-old_color="#000000" fill="#FFBB04"/></g> </svg>
