<?xml version="1.0"?>
<svg xmlns="http://www.w3.org/2000/svg" xmlns:xlink="http://www.w3.org/1999/xlink" version="1.1" id="Layer_1" x="0px" y="0px" viewBox="0 0 512 512" style="enable-background:new 0 0 512 512;" xml:space="preserve" width="512px" height="512px" class=""><g><g>
	<g>
		<path d="M0,189.513v190.409c0,28.587,23.175,51.762,51.762,51.762h408.476c28.587,0,51.762-23.175,51.762-51.762V189.513H0z     M55.513,256.723h126.275v33.391H55.513V256.723z M222.211,355.696H55.513v-33.391h166.698V355.696z M406.276,356.421    c-10.929,0-21.033-3.503-29.276-9.431c-8.243,5.928-18.347,9.431-29.276,9.431c-27.73,0-50.211-22.48-50.211-50.211    C297.514,278.48,319.994,256,347.724,256c10.929,0,21.033,3.503,29.276,9.431c8.243-5.928,18.347-9.431,29.276-9.431    c27.73,0,50.211,22.48,50.211,50.211S434.007,356.421,406.276,356.421z" data-original="#000000" class="active-path" data-old_color="#000000" fill="#9E9E9E"/>
	</g>
</g><g>
	<g>
		<path d="M460.238,80.315H51.762C23.175,80.315,0,103.49,0,132.077v24.044h512v-24.044C512,103.49,488.825,80.315,460.238,80.315z" data-original="#000000" class="active-path" data-old_color="#000000" fill="#9E9E9E"/>
	</g>
</g></g> </svg>
